<svg width="35" height="35" viewBox="0 0 35 35" fill="none" xmlns="http://www.w3.org/2000/svg">
<rect width="35" height="35" rx="17.5" fill="white"/>
<path d="M17.7763 20.8023V20.1818C17.7763 19.7374 17.8816 19.3314 18.0921 18.9637C18.307 18.5921 18.6184 18.2952 19.0263 18.0731C19.4386 17.8471 19.9364 17.7341 20.5197 17.7341C21.1162 17.7341 21.6162 17.8451 22.0197 18.0673C22.4232 18.2895 22.7281 18.5863 22.9342 18.9579C23.1447 19.3295 23.25 19.7374 23.25 20.1818V20.8023C23.25 21.2466 23.1447 21.6546 22.9342 22.0262C22.7237 22.3939 22.4145 22.6907 22.0066 22.9167C21.6031 23.1389 21.1075 23.25 20.5197 23.25C19.9276 23.25 19.4276 23.1389 19.0197 22.9167C18.6118 22.6907 18.3026 22.3939 18.0921 22.0262C17.8816 21.6546 17.7763 21.2466 17.7763 20.8023ZM19.3092 20.1818V20.8023C19.3092 21.1317 19.3991 21.4305 19.5789 21.6986C19.7588 21.9668 20.0724 22.1008 20.5197 22.1008C20.9627 22.1008 21.2719 21.9668 21.4474 21.6986C21.6228 21.4305 21.7105 21.1317 21.7105 20.8023V20.1818C21.7105 19.8523 21.625 19.5536 21.4539 19.2854C21.2873 19.0173 20.9759 18.8832 20.5197 18.8832C20.0811 18.8832 19.7697 19.0173 19.5855 19.2854C19.4013 19.5536 19.3092 19.8523 19.3092 20.1818ZM11 14.0682V13.4477C11 13.0034 11.1053 12.5954 11.3158 12.2239C11.5307 11.8523 11.8421 11.5554 12.25 11.3333C12.6623 11.1111 13.1601 11 13.7434 11C14.3399 11 14.8399 11.1111 15.2434 11.3333C15.6469 11.5554 15.9518 11.8523 16.1579 12.2239C16.364 12.5954 16.4671 13.0034 16.4671 13.4477V14.0682C16.4671 14.5126 16.3618 14.9205 16.1513 15.2921C15.9452 15.6598 15.6382 15.9567 15.2303 16.1827C14.8268 16.4049 14.3311 16.5159 13.7434 16.5159C13.1469 16.5159 12.6447 16.4049 12.2368 16.1827C11.8333 15.9567 11.5263 15.6598 11.3158 15.2921C11.1053 14.9205 11 14.5126 11 14.0682ZM12.5395 13.4477V14.0682C12.5395 14.3977 12.6272 14.6965 12.8026 14.9646C12.9825 15.2327 13.2961 15.3668 13.7434 15.3668C14.182 15.3668 14.489 15.2327 14.6645 14.9646C14.8443 14.6965 14.9342 14.3977 14.9342 14.0682V13.4477C14.9342 13.1183 14.8487 12.8195 14.6776 12.5514C14.5066 12.2832 14.1952 12.1492 13.7434 12.1492C13.3048 12.1492 12.9934 12.2832 12.8092 12.5514C12.6294 12.8195 12.5395 13.1183 12.5395 13.4477ZM11.625 23.0087L20.8882 11.2413H22.4605L13.1974 23.0087H11.625Z" fill="#FA523D"/>
</svg>
