<svg width="123" height="40" viewBox="0 0 123 40" fill="none" xmlns="http://www.w3.org/2000/svg">
<g clip-path="url(#clip0_0_3614)">
<path d="M24.224 -0.0820312V16.3898H8.52445V-0.0820312H0.102295V40.0821H8.52445V23.9385H24.224V40.0821H32.6462V-0.0820312H24.224Z" fill="#1D1D1D"/>
<path d="M52.1479 10.8513C44.707 10.8513 40.4755 15.0769 39.6987 20H47.1805C47.6302 18.5025 49.0612 17.0872 51.8004 17.0872C54.4988 17.0872 56.4817 18.4615 56.4817 21.1282V22.4615H50.2877C43.0103 22.4615 38.6152 25.8256 38.6152 31.6923C38.6152 37.4359 43.0307 40.759 48.5297 40.759C52.2093 40.759 55.1938 39.3231 56.9518 37.0051V40.1025H64.3928V21.4154C64.3723 14.441 59.4867 10.8513 52.1479 10.8513ZM50.717 34.5025C48.2435 34.5025 46.649 33.2923 46.649 31.3025C46.649 29.2513 48.407 28.041 50.8805 28.041H56.5021V29.3128C56.5021 32.6359 53.8037 34.5025 50.717 34.5025Z" fill="#1D1D1D"/>
<path d="M87.0425 10.8513C83.1789 10.8513 80.5419 12.3898 79.0496 14.3795V-0.102539H71.0159V40.0616H78.7226V36.8C79.99 39.0154 82.7905 40.718 86.8176 40.718C93.8088 40.718 99.3691 35.2 99.3691 25.8052C99.3895 16.2667 93.8293 10.8513 87.0425 10.8513ZM85.1209 33.7846C81.38 33.7846 78.9065 30.7487 78.9065 25.9282V25.7026C78.9065 20.9026 81.38 17.8052 85.1209 17.8052C88.8618 17.8052 91.2945 20.9641 91.2945 25.8257C91.2945 30.6872 88.8618 33.7846 85.1209 33.7846Z" fill="#1D1D1D"/>
<path d="M120.772 11.4052C117.522 11.4052 114.394 12.6154 112.514 15.9385V11.5077H104.807V40.0821H112.841V25.6C112.841 21.518 115.478 19.0154 120.322 19.0154H122.755V11.3846L120.772 11.4052Z" fill="#1D1D1D"/>
</g>
<defs>
<clipPath id="clip0_0_3614">
<rect width="122.857" height="40" fill="white"/>
</clipPath>
</defs>
</svg>
