<svg width="147" height="50" viewBox="0 0 147 50" fill="none" xmlns="http://www.w3.org/2000/svg">
<path d="M53.39 35.6739C47.4053 35.6739 43.0825 30.7923 43.0825 24.7905C43.0825 18.7887 47.3417 13.6339 53.5716 13.6339C56.3324 13.6339 58.294 14.2805 60.0013 15.3461V20.6193H65.1505V12.9326L64.1606 12.1585C61.3272 9.92713 57.0044 8.74316 53.39 8.74316C44.5628 8.74316 37.3884 15.9381 37.3884 24.7905C37.3884 33.643 44.5628 40.8379 53.39 40.8379C58.9025 40.8379 63.0527 38.5337 66.1132 34.5264L62.0265 31.3934C59.9468 34.1166 56.8046 35.6739 53.39 35.6739ZM140.536 35.4007L140.354 28.0055V9.96356H129.62V15.1275H134.933V27.3588C134.933 32.6321 130.91 36.357 126.859 36.357C122.809 36.357 120.693 33.5428 120.693 28.2696V9.96356H110.667V15.1275H115.271V29.1803C115.271 36.3297 119.267 41.2477 126.405 41.2477C130.501 41.2477 133.625 38.98 135.487 35.4554H135.568L136.304 40.3734H144.55V35.3916H140.536V35.4007ZM19.4797 32.1494H19.3616L11.6151 9.49908H2.08862V14.663H7.44671L16.6735 40.4827H21.5775V40.4736L31.1948 14.663H36.1987V9.49908H27.2625L19.4797 32.1494ZM70.1817 40.5373H75.4762V35.2277H70.1817V40.5373ZM90.6514 15.9472H90.5878L90.2518 9.96356H80.7889V14.6721H85.8291V35.3916H80.7889V40.3734H104.165V35.4827H91.1599V22.9781C91.7502 18.4517 95.1286 14.5811 99.751 14.5811H99.8328L99.742 19.2076H104.891V9.86338H100.832C96.1638 9.86338 92.7038 12.3953 90.6514 15.9472Z" fill="#1D1D1D"/>
</svg>
