<svg width="20" height="20" viewBox="0 0 20 20" fill="none" xmlns="http://www.w3.org/2000/svg">
    <rect x="0.5" y="0.5" width="19" height="19" rx="9.5" stroke="#DDDDDD" />
    <path d="M9.19505 12.4606V12.3813C9.20046 11.8634 9.25047 11.4513 9.34509 11.145C9.44242 10.8387 9.58029 10.5909 9.75872 10.4016C9.93715 10.2122 10.1521 10.0396 10.4035 9.88365C10.5657 9.77784 10.7117 9.65951 10.8414 9.52864C10.9712 9.39777 11.0739 9.24741 11.1496 9.07757C11.2253 8.90772 11.2632 8.71977 11.2632 8.51372C11.2632 8.26591 11.2064 8.05151 11.0929 7.87053C10.9793 7.68954 10.8279 7.55032 10.6387 7.45286C10.4521 7.35263 10.244 7.30251 10.0142 7.30251C9.80603 7.30251 9.60733 7.34706 9.41809 7.43616C9.22885 7.52526 9.07205 7.66448 8.94769 7.85382C8.82333 8.04037 8.75169 8.28123 8.73277 8.57637H7.5C7.51892 8.07518 7.64193 7.65195 7.86902 7.30668C8.09611 6.95863 8.39619 6.69551 8.76926 6.5173C9.14504 6.3391 9.56002 6.25 10.0142 6.25C10.5116 6.25 10.9469 6.34606 11.32 6.53819C11.693 6.72753 11.9823 6.99344 12.1878 7.33592C12.3959 7.67562 12.5 8.07239 12.5 8.52625C12.5 8.83811 12.4527 9.11933 12.3581 9.36993C12.2635 9.61774 12.1283 9.8391 11.9526 10.034C11.7795 10.2289 11.5714 10.4016 11.3281 10.5519C11.0983 10.6995 10.9117 10.8526 10.7685 11.0113C10.6279 11.17 10.5251 11.358 10.4603 11.5752C10.3954 11.7924 10.3602 12.0611 10.3548 12.3813V12.4606H9.19505ZM9.80738 15C9.5857 15 9.39511 14.9193 9.2356 14.7578C9.0761 14.5935 8.99635 14.3958 8.99635 14.1647C8.99635 13.9364 9.0761 13.7414 9.2356 13.58C9.39511 13.4157 9.5857 13.3335 9.80738 13.3335C10.0264 13.3335 10.2156 13.4157 10.3751 13.58C10.5373 13.7414 10.6184 13.9364 10.6184 14.1647C10.6184 14.3178 10.5806 14.4584 10.5049 14.5865C10.4319 14.7118 10.3346 14.8121 10.2129 14.8872C10.0912 14.9624 9.95607 15 9.80738 15Z" fill="currentColor" />
</svg>