<svg width="21" height="21" viewBox="0 0 21 21" fill="none" xmlns="http://www.w3.org/2000/svg">
<path d="M13.9303 8.24224C14.3903 7.78224 14.847 6.70891 12.9303 8.01224C11.1398 9.24447 9.33726 10.459 7.5228 11.6556C7.2465 11.7805 6.94779 11.8483 6.64463 11.8549C6.34147 11.8615 6.0401 11.8067 5.75863 11.6939C4.60863 11.3489 3.26613 10.8889 3.26613 10.8889C3.26613 10.8889 2.34947 10.3131 3.91863 9.69974C3.91863 9.69974 10.5528 6.97724 12.8536 6.01807C13.7353 5.63474 16.7261 4.40807 16.7261 4.40807C16.7261 4.40807 18.107 3.87058 17.992 5.17474C17.9536 5.71141 17.647 7.59141 17.3403 9.62307C16.8795 12.4989 16.3811 15.6439 16.3811 15.6439C16.3811 15.6439 16.3045 16.5256 15.6528 16.6789C14.9552 16.6671 14.2812 16.4245 13.7361 15.9889C13.5828 15.8739 10.8603 14.1481 9.8628 13.3047C9.76133 13.236 9.6789 13.1427 9.62316 13.0336C9.56743 12.9244 9.54021 12.8029 9.54404 12.6804C9.54786 12.5579 9.58261 12.4384 9.64504 12.3329C9.70748 12.2275 9.79557 12.1395 9.90113 12.0772C11.2693 10.8255 12.6126 9.54693 13.9303 8.24224Z" fill="#1D1D1D"/>
</svg>
