<svg width="14" height="14" viewBox="0 0 14 14" fill="none" xmlns="http://www.w3.org/2000/svg">
    <g clip-path="url(#clip0_361_6617)">
        <path d="M6.8497 10.5228H7.6862C7.6862 10.5228 7.93907 10.4948 8.0677 10.3557C8.1867 10.2279 8.18232 9.98817 8.18232 9.98817C8.18232 9.98817 8.1657 8.86554 8.6872 8.70017C9.20082 8.53742 9.86057 9.78517 10.5597 10.2655C11.0882 10.6287 11.4898 10.549 11.4898 10.549L13.3597 10.5228C13.3597 10.5228 14.3379 10.4624 13.8742 9.69329C13.8366 9.63029 13.6038 9.12454 12.4838 8.08504C11.3113 6.99654 11.4688 7.17329 12.8811 5.29117C13.7412 4.14492 14.0851 3.44492 13.9774 3.14567C13.8751 2.86042 13.2424 2.93567 13.2424 2.93567L11.1389 2.94792C11.1389 2.94792 10.9832 2.92692 10.8668 2.99604C10.7539 3.06429 10.6813 3.22179 10.6813 3.22179C10.6813 3.22179 10.3479 4.10904 9.90345 4.86329C8.96632 6.45492 8.59094 6.53892 8.43782 6.44004C8.08169 6.20992 8.17095 5.51429 8.17095 5.02079C8.17095 3.47817 8.40457 2.83504 7.71507 2.66879C7.48582 2.61367 7.31782 2.57692 6.73245 2.57079C5.9817 2.56292 5.34557 2.57342 4.98595 2.74929C4.7462 2.86654 4.56157 3.12817 4.67445 3.14304C4.81357 3.16142 5.12857 3.22792 5.2957 3.45542C5.51182 3.74854 5.50395 4.40829 5.50395 4.40829C5.50395 4.40829 5.6282 6.22392 5.21432 6.44967C4.92995 6.60454 4.54057 6.28867 3.70495 4.84404C3.27707 4.10467 2.95332 3.28654 2.95332 3.28654C2.95332 3.28654 2.8912 3.13429 2.78007 3.05292C2.64532 2.95404 2.45632 2.92254 2.45632 2.92254L0.45607 2.93479C0.45607 2.93479 0.155945 2.94354 0.0456953 3.07392C-0.0523047 3.19029 0.0378203 3.43004 0.0378203 3.43004C0.0378203 3.43004 1.60407 7.09367 3.37682 8.94079C5.00345 10.6339 6.8497 10.5228 6.8497 10.5228Z" fill="currentColor" />
    </g>
    <defs>
        <clipPath id="clip0_361_6617">
            <rect width="14" height="14" />
        </clipPath>
    </defs>
</svg>