<svg width="17" height="17" viewBox="0 0 17 17" fill="none" xmlns="http://www.w3.org/2000/svg">
<g clip-path="url(#clip0_644_9830)">
<path d="M8.50201 0.5H8.49801C4.08701 0.5 0.50001 4.088 0.50001 8.5C0.497271 10.185 1.03066 11.8272 2.02301 13.189L1.02601 16.161L4.10101 15.178C5.40538 16.0434 6.93669 16.5034 8.50201 16.5C12.913 16.5 16.5 12.911 16.5 8.5C16.5 4.089 12.913 0.5 8.50201 0.5ZM13.157 11.797C12.964 12.342 12.198 12.794 11.587 12.926C11.169 13.015 10.623 13.086 8.78501 12.324C6.43401 11.35 4.92001 8.961 4.80201 8.806C4.68901 8.651 3.85201 7.541 3.85201 6.393C3.85201 5.245 4.43501 4.686 4.67001 4.446C4.86301 4.249 5.18201 4.159 5.48801 4.159C5.58701 4.159 5.67601 4.164 5.75601 4.168C5.99101 4.178 6.10901 4.192 6.26401 4.563C6.45701 5.028 6.92701 6.176 6.98301 6.294C7.04001 6.412 7.09701 6.572 7.01701 6.727C6.94201 6.887 6.87601 6.958 6.75801 7.094C6.64001 7.23 6.52801 7.334 6.41001 7.48C6.30201 7.607 6.18001 7.743 6.31601 7.978C6.45201 8.208 6.92201 8.975 7.61401 9.591C8.50701 10.386 9.23101 10.64 9.49001 10.748C9.68301 10.828 9.91301 10.809 10.054 10.659C10.233 10.466 10.454 10.146 10.679 9.831C10.839 9.605 11.041 9.577 11.253 9.657C11.469 9.732 12.612 10.297 12.847 10.414C13.082 10.532 13.237 10.588 13.294 10.687C13.35 10.786 13.35 11.251 13.157 11.797Z" fill="#1D1D1D"/>
</g>
<defs>
<clipPath id="clip0_644_9830">
<rect width="16" height="16" fill="white" transform="translate(0.5 0.5)"/>
</clipPath>
</defs>
</svg>
