<svg width="32.000000" height="32.000000" viewBox="0 0 32 32" fill="none" xmlns="http://www.w3.org/2000/svg" xmlns:xlink="http://www.w3.org/1999/xlink">
	<desc>
			Created with Pixso.
	</desc>
	<defs>
		<clipPath id="clip339_13985">
			<rect id="Favicon" rx="5.500000" width="31.000000" height="31.000000" transform="translate(0.500000 0.500000)" fill="white" fill-opacity="0"/>
		</clipPath>
	</defs>
	<rect id="Favicon" rx="5.500000" width="31.000000" height="31.000000" transform="translate(0.500000 0.500000)" fill="#1D1D1D" fill-opacity="1.000000"/>
	<g clip-path="url(#clip339_13985)">
		<path id="ZE" d="M15.79 22L6.88 22L6.88 20.53L12.69 12.39L6.87 12.39L6.87 10.36L15.78 10.36L15.78 11.82L9.97 19.97L15.79 19.97L15.79 22ZM25.54 22L17.68 22L17.68 10.36L25.52 10.36L25.52 12.39L20.14 12.39L20.14 15.16L25.11 15.16L25.11 17.19L20.14 17.19L20.14 19.97L25.54 19.97L25.54 22Z" fill="#FFFFFF" fill-opacity="1.000000" fill-rule="evenodd"/>
	</g>
</svg>
