<?xml version="1.0" encoding="utf-8"?><svg width="20" height="20" fill="none" xmlns="http://www.w3.org/2000/svg" viewBox="0 0 20 20"><rect x=".5" y=".5" width="19" height="19" rx="9.5" stroke="#DDD"/><path d="M9.195 12.46v-.079c.005-.518.055-.93.15-1.236.097-.306.235-.554.414-.743.178-.19.393-.362.644-.518a2.66 2.66 0 0 0 .438-.355c.13-.131.233-.282.309-.451a1.37 1.37 0 0 0 .113-.564c0-.248-.057-.462-.17-.643a1.148 1.148 0 0 0-.454-.418c-.187-.1-.395-.15-.625-.15-.208 0-.407.044-.596.133a1.14 1.14 0 0 0-.47.418c-.125.186-.196.427-.215.722H7.5c.019-.5.142-.924.369-1.27.227-.347.527-.61.9-.789.376-.178.791-.267 1.245-.267.498 0 .933.096 1.306.288.373.19.662.455.868.798.208.34.312.736.312 1.19 0 .312-.047.593-.142.844-.095.248-.23.47-.405.664a2.786 2.786 0 0 1-.625.518c-.23.148-.416.3-.56.46-.14.158-.243.346-.308.563-.065.217-.1.486-.105.806v.08h-1.16ZM9.807 15a.776.776 0 0 1-.571-.242.82.82 0 0 1-.24-.593c0-.229.08-.424.24-.585a.77.77 0 0 1 .571-.246c.22 0 .409.082.568.246a.795.795 0 0 1 .243.585.85.85 0 0 1-.405.723.756.756 0 0 1-.406.112Z" fill="currentColor"/></svg>