<?xml version="1.0" encoding="utf-8"?><svg width="21" height="21" fill="none" xmlns="http://www.w3.org/2000/svg" viewBox="0 0 21 21"><path d="M13.93 8.242c.46-.46.917-1.533-1-.23a330.067 330.067 0 0 1-5.407 3.644 2.25 2.25 0 0 1-1.764.038c-1.15-.345-2.493-.805-2.493-.805s-.917-.576.653-1.19c0 0 6.634-2.722 8.935-3.68.881-.384 3.872-1.61 3.872-1.61s1.381-.538 1.266.766c-.038.536-.345 2.416-.652 4.448-.46 2.876-.959 6.02-.959 6.02s-.076.883-.728 1.036a3.156 3.156 0 0 1-1.917-.69c-.153-.115-2.876-1.84-3.873-2.684a.727.727 0 0 1 .038-1.228 140.952 140.952 0 0 0 4.03-3.835Z" fill="currentColor"/></svg>