<?xml version="1.0" encoding="utf-8"?><svg width="14" height="14" fill="none" xmlns="http://www.w3.org/2000/svg" viewBox="0 0 14 14"><g clip-path="url(#la)"><path d="M6.85 10.523h.836s.253-.028.382-.167c.119-.128.114-.368.114-.368s-.016-1.122.505-1.288c.514-.163 1.174 1.085 1.873 1.566.528.363.93.283.93.283l1.87-.026s.978-.06.514-.83c-.037-.063-.27-.568-1.39-1.608-1.173-1.088-1.015-.912.397-2.794.86-1.146 1.204-1.846 1.096-2.145-.102-.286-.735-.21-.735-.21l-2.103.012s-.156-.021-.272.048a.592.592 0 0 0-.186.226s-.333.887-.778 1.641C8.966 6.455 8.591 6.54 8.438 6.44c-.356-.23-.267-.926-.267-1.42 0-1.542.234-2.185-.456-2.351-.23-.055-.397-.092-.983-.098-.75-.008-1.386.002-1.746.178-.24.118-.424.38-.312.394.14.018.455.085.622.312.216.294.208.953.208.953s.124 1.816-.29 2.042c-.284.155-.673-.161-1.51-1.606-.427-.74-.75-1.557-.75-1.557s-.063-.153-.174-.234c-.135-.099-.324-.13-.324-.13l-2 .012s-.3.009-.41.139c-.098.116-.008.356-.008.356s1.566 3.664 3.339 5.51c1.626 1.694 3.473 1.583 3.473 1.583Z" fill="currentColor"/></g><defs><clipPath id="la"><path d="M0 0h14v14H0z"/></clipPath></defs></svg>