<?xml version="1.0" encoding="utf-8"?><svg width="14" height="14" fill="none" xmlns="http://www.w3.org/2000/svg" viewBox="0 0 14 14"><path d="M13.417 5.664a4.959 4.959 0 0 0-.531-2.409 1.703 1.703 0 0 0-1.004-.583A45.71 45.71 0 0 0 7 2.49a45.766 45.766 0 0 0-4.865.175c-.32.058-.616.208-.852.431C.758 3.582.7 4.41.642 5.11a28.169 28.169 0 0 0 0 3.78c.016.394.075.785.175 1.167.07.294.212.567.414.793.237.235.54.394.869.455 1.258.155 2.525.22 3.792.193 2.041.029 3.832 0 5.95-.164a1.68 1.68 0 0 0 .892-.455c.163-.163.285-.363.356-.583a6.17 6.17 0 0 0 .303-1.984c.024-.326.024-2.298.024-2.648ZM5.682 8.662v-3.61l3.453 1.814c-.968.536-2.246 1.143-3.453 1.796Z" fill="currentColor"/></svg>