<svg width="153.282104" height="19.062500" viewBox="0 0 153.282 19.0625" fill="none" xmlns="http://www.w3.org/2000/svg" xmlns:xlink="http://www.w3.org/1999/xlink">
	<desc>
			Created with Pixso.
	</desc>
	<defs/>
	<path id="Фабрика ZETTA" d="M33.93 0.41C35.06 0.42 35.87 0.42 36.4 0L37.28 1.34C36.31 2.23 34.98 2.23 32.89 2.29C30.53 2.36 29.49 3.73 29.25 6.49L29.39 6.49C30.09 5.14 31.42 4.47 33 4.47C35.63 4.47 37.57 6.32 37.57 9.67C37.57 13.07 35.59 15.19 32.55 15.19C29.5 15.19 27.51 13.08 27.51 9.07L27.51 7.99C27.51 3.01 29.3 0.49 32.84 0.42C33.23 0.41 33.59 0.41 33.93 0.41ZM0 7.93C0 4.45 2.4 2.09 5.71 2.09L5.96 2.09L5.96 0.17L8.11 0.17L8.11 2.09L8.33 2.09C11.66 2.09 14.04 4.43 14.04 7.91C14.04 11.34 11.66 13.68 8.33 13.68L8.11 13.68L8.11 15.56L5.96 15.56L5.96 13.68L5.71 13.68C2.38 13.68 0 11.37 0 7.93ZM102.26 14.97L91.86 14.97L91.86 13.5L99.51 2.31L91.79 2.31L91.79 0.42L102.19 0.42L102.19 1.88L94.54 13.08L102.26 13.08L102.26 14.97ZM114.21 14.97L105.01 14.97L105.01 0.42L114.13 0.42L114.13 2.31L107.21 2.31L107.21 6.74L113.65 6.74L113.65 8.62L107.21 8.62L107.21 13.08L114.21 13.08L114.21 14.97ZM120.88 2.31L116.35 2.31L116.35 0.42L127.61 0.42L127.61 2.31L123.07 2.31L123.07 14.97L120.88 14.97L120.88 2.31ZM133.9 2.31L129.37 2.31L129.37 0.42L140.63 0.42L140.63 2.31L136.09 2.31L136.09 14.97L133.9 14.97L133.9 2.31ZM143.94 11.12L142.6 14.97L140.27 14.97L145.51 0.42L148.04 0.42L153.28 14.97L150.95 14.97L149.62 11.12L143.94 11.12ZM146.72 3.06L144.58 9.27L148.98 9.27L146.84 3.06L146.72 3.06ZM23 13.48C22.6 14.29 21.58 15.21 19.78 15.21C17.7 15.21 16.09 14.03 16.09 11.88C16.09 9.4 18.21 8.87 20.27 8.62C22.23 8.4 23.03 8.41 23.03 7.64L23.03 7.59C23.03 6.35 22.33 5.63 20.96 5.63C19.53 5.63 18.73 6.38 18.42 7.15L16.42 6.7C17.13 4.71 18.95 3.92 20.93 3.92C22.66 3.92 25.16 4.55 25.16 7.72L25.16 14.97L23.08 14.97L23.08 13.48L23 13.48ZM42.06 19.06L39.94 19.06L39.94 4.06L42.01 4.06L42.01 5.83L42.19 5.83C42.57 5.15 43.3 3.92 45.32 3.92C47.96 3.92 49.9 6 49.9 9.53C49.9 13.06 47.98 15.18 45.34 15.18C43.36 15.18 42.57 13.96 42.19 13.27L42.06 13.27L42.06 19.06ZM81.78 13.48C81.37 14.29 80.36 15.21 78.56 15.21C76.48 15.21 74.87 14.03 74.87 11.88C74.87 9.4 76.98 8.87 79.05 8.62C81.01 8.4 81.81 8.41 81.81 7.64L81.81 7.59C81.81 6.35 81.11 5.63 79.73 5.63C78.31 5.63 77.51 6.38 77.2 7.15L75.2 6.7C75.91 4.71 77.73 3.92 79.7 3.92C81.44 3.92 83.94 4.55 83.94 7.72L83.94 14.97L81.86 14.97L81.86 13.48L81.78 13.48ZM5.96 3.99L5.71 3.99C3.44 3.99 2.12 5.46 2.12 7.93C2.12 10.33 3.46 11.78 5.71 11.78L5.96 11.78L5.96 3.99ZM8.34 3.99L8.11 3.99L8.11 11.78L8.34 11.78C10.61 11.78 11.91 10.32 11.91 7.91C11.91 5.47 10.61 3.99 8.34 3.99ZM54.37 4.06L54.37 11.99L59.17 4.06L61.46 4.06L61.46 14.97L59.38 14.97L59.38 7.03L54.59 14.97L52.28 14.97L52.28 4.06L54.37 4.06ZM66.44 14.97L64.31 14.97L64.31 4.06L66.44 4.06L66.44 8.63L67.46 8.63L71.06 4.06L73.69 4.06L69.46 9.36L73.74 14.97L71.1 14.97L67.81 10.61L66.44 10.61L66.44 14.97ZM44.87 5.72C43.01 5.72 42.02 7.23 42.02 9.51C42.02 11.81 43.04 13.37 44.87 13.37C46.76 13.37 47.76 11.7 47.76 9.51C47.76 7.34 46.79 5.72 44.87 5.72ZM29.65 9.71C29.65 11.96 30.75 13.4 32.55 13.4C34.33 13.4 35.42 11.97 35.42 9.71C35.42 7.5 34.33 6.24 32.53 6.24C30.76 6.24 29.68 7.5 29.65 9.71ZM18.17 11.91C18.17 12.96 19.04 13.5 20.24 13.5C22 13.5 23.04 12.32 23.04 11.03L23.04 9.62C22.73 9.93 21.1 10.12 20.41 10.21C19.18 10.37 18.17 10.78 18.17 11.91ZM76.95 11.91C76.95 12.96 77.81 13.5 79.02 13.5C80.78 13.5 81.81 12.32 81.81 11.03L81.81 9.62C81.51 9.93 79.88 10.12 79.19 10.21C77.96 10.37 76.95 10.78 76.95 11.91Z" fill="#FFFFFF" fill-opacity="1.000000" fill-rule="evenodd"/>
</svg>
