<svg width="155" height="28" viewBox="0 0 155 28" fill="none" xmlns="http://www.w3.org/2000/svg">
<path d="M6.84659 8.13068H9.46733C10.5753 8.13068 11.5578 8.37453 12.4148 8.86222C13.2765 9.34517 13.9512 10.0246 14.4389 10.9006C14.9313 11.7718 15.1776 12.785 15.1776 13.9403C15.1776 15.0862 14.9313 16.0923 14.4389 16.9588C13.9512 17.8253 13.2765 18.5024 12.4148 18.9901C11.5578 19.473 10.5753 19.7145 9.46733 19.7145H6.84659C5.73864 19.7145 4.75379 19.4754 3.89205 18.9972C3.0303 18.5142 2.35322 17.8419 1.8608 16.9801C1.37311 16.1184 1.12926 15.1122 1.12926 13.9616C1.12926 12.8016 1.37547 11.7836 1.8679 10.9077C2.36032 10.0317 3.03504 9.34991 3.89205 8.86222C4.75379 8.37453 5.73864 8.13068 6.84659 8.13068ZM6.84659 10.027C6.08902 10.027 5.44271 10.1856 4.90767 10.5028C4.37263 10.8153 3.96307 11.2652 3.67898 11.8523C3.39489 12.4394 3.25284 13.1425 3.25284 13.9616C3.25284 14.7618 3.39489 15.4508 3.67898 16.0284C3.9678 16.6013 4.37973 17.044 4.91477 17.3565C5.44981 17.6643 6.09375 17.8182 6.84659 17.8182H9.47443C10.2273 17.8182 10.8688 17.6643 11.3991 17.3565C11.9342 17.044 12.3414 16.599 12.6207 16.0213C12.9048 15.4389 13.0469 14.7453 13.0469 13.9403C13.0469 13.1307 12.9048 12.4347 12.6207 11.8523C12.3414 11.2652 11.9342 10.8153 11.3991 10.5028C10.8688 10.1856 10.2273 10.027 9.47443 10.027H6.84659ZM9.24006 6.19886V21.5966H7.08807V6.19886H9.24006ZM20.9109 21.2415C20.2196 21.2415 19.5946 21.1136 19.0359 20.858C18.4772 20.5975 18.0344 20.2211 17.7077 19.7287C17.3858 19.2363 17.2248 18.6326 17.2248 17.9176C17.2248 17.3021 17.3432 16.7955 17.5799 16.3977C17.8166 16 18.1362 15.6851 18.5387 15.4531C18.9412 15.2211 19.391 15.0459 19.8881 14.9276C20.3853 14.8092 20.8919 14.7192 21.408 14.6577C22.0614 14.5819 22.5917 14.5204 22.9989 14.473C23.4061 14.4209 23.7021 14.3381 23.8867 14.2244C24.0714 14.1108 24.1637 13.9261 24.1637 13.6705V13.6207C24.1637 13.0005 23.9885 12.5199 23.6381 12.179C23.2925 11.8381 22.7764 11.6676 22.0898 11.6676C21.3749 11.6676 20.8114 11.8262 20.3995 12.1435C19.9923 12.456 19.7106 12.804 19.5543 13.1875L17.5586 12.733C17.7953 12.0701 18.141 11.535 18.5955 11.1278C19.0548 10.7159 19.5827 10.4176 20.1793 10.233C20.7759 10.0436 21.4033 9.94886 22.0614 9.94886C22.497 9.94886 22.9587 10.0009 23.4464 10.1051C23.9388 10.2045 24.3981 10.3892 24.8242 10.6591C25.2551 10.929 25.6078 11.3149 25.8825 11.8168C26.1571 12.3139 26.2944 12.9602 26.2944 13.7557V21H24.2205V19.5085H24.1353C23.998 19.7831 23.792 20.053 23.5174 20.3182C23.2428 20.5833 22.89 20.8035 22.4592 20.9787C22.0283 21.1539 21.5122 21.2415 20.9109 21.2415ZM21.3725 19.5369C21.9596 19.5369 22.4615 19.4209 22.8782 19.1889C23.2996 18.9569 23.6192 18.6539 23.837 18.2798C24.0595 17.901 24.1708 17.4962 24.1708 17.0653V15.6591C24.0951 15.7348 23.9483 15.8059 23.7305 15.8722C23.5174 15.9337 23.2736 15.9882 22.9989 16.0355C22.7243 16.0781 22.4568 16.1184 22.1964 16.1562C21.936 16.1894 21.7182 16.2178 21.543 16.2415C21.131 16.2936 20.7546 16.3812 20.4137 16.5043C20.0775 16.6274 19.8076 16.8049 19.604 17.0369C19.4052 17.2642 19.3058 17.5672 19.3058 17.946C19.3058 18.4716 19.4999 18.8693 19.8881 19.1392C20.2764 19.4044 20.7712 19.5369 21.3725 19.5369ZM37.5391 6.02841L38.4197 7.37074C38.093 7.66903 37.7214 7.8821 37.3047 8.00994C36.8928 8.13305 36.4169 8.21117 35.8771 8.24432C35.3374 8.27273 34.7195 8.29877 34.0234 8.32244C33.2375 8.34612 32.5911 8.51657 32.0845 8.83381C31.5779 9.14631 31.1873 9.61032 30.9126 10.2259C30.6428 10.8366 30.4676 11.6037 30.3871 12.527H30.522C30.8771 11.8499 31.3696 11.3433 31.9993 11.0071C32.6338 10.6709 33.3464 10.5028 34.1371 10.5028C35.0178 10.5028 35.8014 10.7041 36.4879 11.1065C37.1745 11.509 37.7143 12.0985 38.1072 12.875C38.505 13.6468 38.7038 14.5914 38.7038 15.7088C38.7038 16.8404 38.4955 17.8182 38.0788 18.642C37.6669 19.4659 37.0845 20.1027 36.3317 20.5526C35.5836 20.9976 34.7005 21.2202 33.6825 21.2202C32.6645 21.2202 31.7768 20.9905 31.0192 20.5312C30.2663 20.0672 29.6816 19.3807 29.2649 18.4716C28.853 17.5625 28.647 16.4403 28.647 15.1051V14.0256C28.647 11.5303 29.0921 9.65294 29.9822 8.39347C30.8724 7.134 32.2029 6.48769 33.9737 6.45455C34.5466 6.44034 35.058 6.43797 35.5078 6.44744C35.9576 6.45218 36.3506 6.43087 36.6868 6.38352C37.0277 6.33144 37.3118 6.21307 37.5391 6.02841ZM33.6896 19.4375C34.2815 19.4375 34.7905 19.2884 35.2166 18.9901C35.6475 18.687 35.9789 18.2585 36.2109 17.7045C36.4429 17.1506 36.5589 16.4972 36.5589 15.7443C36.5589 15.0057 36.4429 14.3783 36.2109 13.8622C35.9789 13.3461 35.6475 12.9531 35.2166 12.6832C34.7857 12.4086 34.2696 12.2713 33.6683 12.2713C33.2232 12.2713 32.8255 12.3494 32.4751 12.5057C32.1248 12.6572 31.8241 12.8821 31.5732 13.1804C31.3269 13.4787 31.1352 13.8433 30.9979 14.2741C30.8653 14.7003 30.7943 15.1903 30.7848 15.7443C30.7848 16.8712 31.0429 17.7685 31.5589 18.4361C32.0798 19.1037 32.79 19.4375 33.6896 19.4375ZM41.076 25.0909V10.0909H43.1499V11.8594H43.3274C43.4505 11.6321 43.6281 11.3693 43.8601 11.071C44.0921 10.7727 44.4141 10.5123 44.826 10.2898C45.2379 10.0625 45.7824 9.94886 46.4595 9.94886C47.3402 9.94886 48.1262 10.1714 48.8175 10.6165C49.5088 11.0616 50.0509 11.7031 50.4439 12.5412C50.8416 13.3793 51.0405 14.3878 51.0405 15.5668C51.0405 16.7457 50.844 17.7566 50.451 18.5994C50.058 19.4375 49.5182 20.0838 48.8317 20.5384C48.1451 20.9882 47.3615 21.2131 46.4808 21.2131C45.8179 21.2131 45.2758 21.1018 44.8544 20.8793C44.4377 20.6567 44.111 20.3963 43.8743 20.098C43.6375 19.7997 43.4553 19.5346 43.3274 19.3026H43.1996V25.0909H41.076ZM43.157 15.5455C43.157 16.3125 43.2682 16.9848 43.4908 17.5625C43.7133 18.1402 44.0353 18.5923 44.4567 18.919C44.8781 19.241 45.3942 19.402 46.005 19.402C46.6394 19.402 47.1697 19.2339 47.5959 18.8977C48.022 18.5568 48.344 18.0952 48.5618 17.5128C48.7843 16.9304 48.8956 16.2746 48.8956 15.5455C48.8956 14.8258 48.7867 14.1795 48.5689 13.6065C48.3558 13.0336 48.0339 12.5814 47.603 12.25C47.1768 11.9186 46.6442 11.7528 46.005 11.7528C45.3894 11.7528 44.8686 11.9115 44.4425 12.2287C44.0211 12.5459 43.7015 12.9886 43.4837 13.5568C43.2659 14.125 43.157 14.7879 43.157 15.5455ZM55.5007 18.0241L60.3089 10.0909H62.5959V21H60.5149V13.0597L55.728 21H53.4197V10.0909H55.5007V18.0241ZM65.451 21V10.0909H67.5746V14.6648H68.5973L72.1982 10.0909H74.826L70.6001 15.3963L74.8757 21H72.2408L68.9524 16.6392H67.5746V21H65.451ZM79.6999 21.2415C79.0086 21.2415 78.3836 21.1136 77.8249 20.858C77.2662 20.5975 76.8235 20.2211 76.4968 19.7287C76.1748 19.2363 76.0138 18.6326 76.0138 17.9176C76.0138 17.3021 76.1322 16.7955 76.369 16.3977C76.6057 16 76.9253 15.6851 77.3278 15.4531C77.7302 15.2211 78.18 15.0459 78.6772 14.9276C79.1744 14.8092 79.681 14.7192 80.1971 14.6577C80.8505 14.5819 81.3808 14.5204 81.788 14.473C82.1952 14.4209 82.4911 14.3381 82.6758 14.2244C82.8604 14.1108 82.9528 13.9261 82.9528 13.6705V13.6207C82.9528 13.0005 82.7776 12.5199 82.4272 12.179C82.0816 11.8381 81.5655 11.6676 80.8789 11.6676C80.1639 11.6676 79.6005 11.8262 79.1886 12.1435C78.7814 12.456 78.4996 12.804 78.3434 13.1875L76.3477 12.733C76.5844 12.0701 76.93 11.535 77.3846 11.1278C77.8439 10.7159 78.3718 10.4176 78.9684 10.233C79.565 10.0436 80.1924 9.94886 80.8505 9.94886C81.2861 9.94886 81.7478 10.0009 82.2354 10.1051C82.7279 10.2045 83.1871 10.3892 83.6133 10.6591C84.0442 10.929 84.3969 11.3149 84.6715 11.8168C84.9461 12.3139 85.0835 12.9602 85.0835 13.7557V21H83.0096V19.5085H82.9244C82.7871 19.7831 82.5811 20.053 82.3065 20.3182C82.0318 20.5833 81.6791 20.8035 81.2482 20.9787C80.8174 21.1539 80.3013 21.2415 79.6999 21.2415ZM80.1616 19.5369C80.7487 19.5369 81.2506 19.4209 81.6673 19.1889C82.0887 18.9569 82.4083 18.6539 82.6261 18.2798C82.8486 17.901 82.9599 17.4962 82.9599 17.0653V15.6591C82.8841 15.7348 82.7373 15.8059 82.5195 15.8722C82.3065 15.9337 82.0626 15.9882 81.788 16.0355C81.5134 16.0781 81.2459 16.1184 80.9854 16.1562C80.725 16.1894 80.5072 16.2178 80.332 16.2415C79.9201 16.2936 79.5437 16.3812 79.2028 16.5043C78.8666 16.6274 78.5967 16.8049 78.3931 17.0369C78.1942 17.2642 78.0948 17.5672 78.0948 17.946C78.0948 18.4716 78.2889 18.8693 78.6772 19.1392C79.0655 19.4044 79.5603 19.5369 80.1616 19.5369ZM92.9989 21V19.5369L100.648 8.34375H92.935V6.45455H103.333V7.91761L95.6836 19.1108H103.397V21H92.9989ZM106.149 21V6.45455H115.268V8.34375H108.343V12.7756H114.792V14.6577H108.343V19.1108H115.353V21H106.149ZM117.482 8.34375V6.45455H128.739V8.34375H124.201V21H122.013V8.34375H117.482ZM130.51 8.34375V6.45455H141.767V8.34375H137.228V21H135.041V8.34375H130.51ZM143.764 21H141.435L146.669 6.45455H149.205L154.439 21H152.109L147.997 9.09659H147.884L143.764 21ZM144.155 15.304H151.712V17.1506H144.155V15.304Z" fill="black"/>
</svg>
