<svg width="87" height="28" viewBox="0 0 87 28" fill="none" xmlns="http://www.w3.org/2000/svg">
<g clip-path="url(#clip0_0_3681)">
<path fill-rule="evenodd" clip-rule="evenodd" d="M8.10778 -0.872559C7.81487 -0.870371 7.44741 -0.866564 6.94805 -0.860483C6.15101 -0.839439 5.54634 -0.791227 4.95375 -0.685965C4.2317 -0.557908 3.57799 -0.347121 2.95297 -0.0322957C2.31781 0.286904 1.73616 0.704586 1.2315 1.20399C0.727412 1.70178 0.304394 2.27735 -0.0200559 2.90718C-0.33895 3.52646 -0.552494 4.17427 -0.683219 4.89155C-0.789969 5.47867 -0.8384 6.07538 -0.859575 6.85544L-0.866838 7.18042C-0.868763 7.29198 -0.87025 7.40744 -0.8713 7.52897L-0.874756 8.23488L-0.874712 19.7802L-0.872569 20.2836C-0.870906 20.6042 -0.866925 20.88 -0.859575 21.1451C-0.838357 21.9245 -0.789925 22.5214 -0.683263 23.1076C-0.55245 23.8255 -0.338863 24.4737 -0.0201001 25.0926C0.304481 25.7221 0.727325 26.2975 1.23185 26.7963C1.73699 27.2956 2.31869 27.7135 2.95372 28.0326C3.57799 28.3471 4.2317 28.5578 4.95401 28.6859C5.49249 28.7816 6.04116 28.8301 6.72589 28.8538L7.23903 28.8663C7.50586 28.87 7.90022 28.8721 8.68755 28.8746L19.8524 28.8728C20.1484 28.8708 20.5061 28.8671 21.0523 28.8604C21.8494 28.8393 22.4541 28.7912 23.0467 28.6859C23.7687 28.5578 24.4225 28.3471 25.0475 28.0322C25.682 27.7131 26.2639 27.2951 26.7686 26.7963C27.2734 26.2972 27.6963 25.7215 28.0201 25.0925C28.3393 24.4737 28.553 23.8251 28.6833 23.1072C28.7803 22.5739 28.8295 22.0302 28.8535 21.3521L28.86 21.1445C28.8644 20.9858 28.8676 20.823 28.8698 20.6492L28.875 19.2807L28.8741 7.96324L28.8698 7.35078C28.8676 7.17687 28.8644 7.0139 28.86 6.85487C28.8389 6.07857 28.79 5.47946 28.6832 4.89194C28.5531 4.17457 28.3393 3.52633 28.0198 2.90674C27.6964 2.27792 27.2733 1.70209 26.7682 1.20329C26.2648 0.705067 25.6828 0.287298 25.047 -0.0325143C24.4225 -0.347121 23.7687 -0.557908 23.0464 -0.686008C22.508 -0.781646 21.9593 -0.830208 21.2746 -0.853877L20.6852 -0.867352C20.6383 -0.867921 20.5875 -0.868446 20.5318 -0.868927L8.10778 -0.872559Z" fill="#1A1A1A" fill-opacity="0.01"/>
<path fill-rule="evenodd" clip-rule="evenodd" d="M6.95874 0.0144296L8.1564 0.00213623L20.6178 0.00694776C20.8068 0.00887276 20.9242 0.0112358 21.0417 0.0144296C21.6595 0.0308358 22.2827 0.0670177 22.8937 0.175561C23.5139 0.285549 24.0907 0.465493 24.6538 0.749168C25.2072 1.02751 25.7142 1.39124 26.1534 1.82594C26.5926 2.25959 26.9606 2.76035 27.2422 3.30789C27.5296 3.86509 27.7111 4.43532 27.8224 5.04848C27.9322 5.65245 27.9688 6.26849 27.9853 6.87924C27.9932 7.1595 27.9966 7.43981 27.998 7.72055L27.9997 8.2197L28 19.2807C28 19.6136 28 19.9465 27.998 20.2799C27.9966 20.5601 27.9932 20.8404 27.9853 21.1207C27.9688 21.731 27.9322 22.3475 27.8224 22.951C27.7111 23.5641 27.5296 24.1349 27.2422 24.6921C26.9606 25.2391 26.5926 25.7399 26.1534 26.174C25.7142 26.6082 25.2072 26.9724 24.6538 27.2508C24.0907 27.5344 23.5139 27.7144 22.8937 27.8244C22.2827 27.9329 21.6595 27.9691 21.0417 27.9855L19.1805 28L7.38233 27.993C7.19338 27.9911 7.07608 27.9887 6.95874 27.9855C6.34095 27.9691 5.71777 27.9329 5.10681 27.8244C4.48661 27.7144 3.90981 27.5344 3.34666 27.2508C2.79278 26.9724 2.28624 26.6082 1.84704 26.174C1.40788 25.7399 1.03989 25.2391 0.757838 24.6921C0.470925 24.1349 0.289362 23.5641 0.177624 22.951C0.0678117 22.3475 0.0317184 21.731 0.0151372 21.1207C0.00730595 20.8404 0.00389374 20.5601 0.00244999 20.2799L0.000307083 19.7801L0 8.71919C0 8.3863 -1.05938e-08 8.05297 0.00244999 7.72055C0.00389374 7.43981 0.00730595 7.1595 0.0151372 6.87924C0.0317184 6.26849 0.0678117 5.65245 0.177624 5.04848C0.289362 4.43532 0.470925 3.86509 0.757838 3.30789C1.03989 2.76035 1.40788 2.25959 1.84704 1.82594C2.28624 1.39124 2.79278 1.02751 3.34666 0.749168C3.90981 0.465493 4.48661 0.285549 5.10681 0.175561C5.71777 0.0670177 6.34095 0.0308358 6.95874 0.0144296Z" fill="#1A1A1A" fill-opacity="0.01"/>
<mask id="mask0_0_3681" style="mask-type:alpha" maskUnits="userSpaceOnUse" x="0" y="0" width="28" height="28">
<path fill-rule="evenodd" clip-rule="evenodd" d="M6.95874 0.0144296L8.1564 0.00213623L20.6178 0.00694776C20.8068 0.00887276 20.9242 0.0112358 21.0417 0.0144296C21.6595 0.0308358 22.2827 0.0670177 22.8937 0.175561C23.5139 0.285549 24.0907 0.465493 24.6538 0.749168C25.2072 1.02751 25.7142 1.39124 26.1534 1.82594C26.5926 2.25959 26.9606 2.76035 27.2422 3.30789C27.5296 3.86509 27.7111 4.43532 27.8224 5.04848C27.9322 5.65245 27.9688 6.26849 27.9853 6.87924C27.9932 7.1595 27.9966 7.43981 27.998 7.72055L27.9997 8.2197L28 19.2807C28 19.6136 28 19.9465 27.998 20.2799C27.9966 20.5601 27.9932 20.8404 27.9853 21.1207C27.9688 21.731 27.9322 22.3475 27.8224 22.951C27.7111 23.5641 27.5296 24.1349 27.2422 24.6921C26.9606 25.2391 26.5926 25.7399 26.1534 26.174C25.7142 26.6082 25.2072 26.9724 24.6538 27.2508C24.0907 27.5344 23.5139 27.7144 22.8937 27.8244C22.2827 27.9329 21.6595 27.9691 21.0417 27.9855L19.1805 28L7.38233 27.993C7.19338 27.9911 7.07608 27.9887 6.95874 27.9855C6.34095 27.9691 5.71777 27.9329 5.10681 27.8244C4.48661 27.7144 3.90981 27.5344 3.34666 27.2508C2.79278 26.9724 2.28624 26.6082 1.84704 26.174C1.40788 25.7399 1.03989 25.2391 0.757838 24.6921C0.470925 24.1349 0.289362 23.5641 0.177624 22.951C0.0678117 22.3475 0.0317184 21.731 0.0151372 21.1207C0.00730595 20.8404 0.00389374 20.5601 0.00244999 20.2799L0.000307083 19.7801L0 8.71919C0 8.3863 -1.05938e-08 8.05297 0.00244999 7.72055C0.00389374 7.43981 0.00730595 7.1595 0.0151372 6.87924C0.0317184 6.26849 0.0678117 5.65245 0.177624 5.04848C0.289362 4.43532 0.470925 3.86509 0.757838 3.30789C1.03989 2.76035 1.40788 2.25959 1.84704 1.82594C2.28624 1.39124 2.79278 1.02751 3.34666 0.749168C3.90981 0.465493 4.48661 0.285549 5.10681 0.175561C5.71777 0.0670177 6.34095 0.0308358 6.95874 0.0144296Z" fill="white"/>
</mask>
<g mask="url(#mask0_0_3681)">
<path d="M28 -6.10352e-05H0V27.9999H28V-6.10352e-05Z" fill="#19AA1E"/>
<path fill-rule="evenodd" clip-rule="evenodd" d="M0 -6.10352e-05H28V9.18744L0 4.81244V-6.10352e-05Z" fill="#FFB919"/>
<path fill-rule="evenodd" clip-rule="evenodd" d="M0 24.9374L28 20.5624V27.9999H0V24.9374Z" fill="#82D714"/>
<path fill-rule="evenodd" clip-rule="evenodd" d="M0 4.25897L9.77362 5.78606C10.9903 5.01593 12.4377 4.5937 14 4.5937C16.1639 4.5937 18.1074 5.40373 19.5225 6.82613C19.7011 7.00564 19.8695 7.19333 20.0275 7.38823L28 8.63393V9.74093L20.837 8.62177C21.3692 9.64298 21.6562 10.7808 21.6562 11.942C21.6562 13.4421 21.3207 14.9378 20.6271 16.4394L20.606 16.4849L20.3114 17.1161H19.6148C18.1765 17.1161 17.2223 17.5464 16.5985 18.3089C16.1087 18.9077 15.8255 19.7148 15.7302 20.5954L15.7273 20.6229L15.7133 20.7636L15.7074 20.8248L15.6961 20.9446C15.6597 21.3377 15.6352 21.6712 15.6229 21.9429L28 20.0089V21.1159L0 25.4909V24.3839L12.3911 22.4478L12.3856 22.1993L12.384 22.1292L12.383 22.0933L12.3811 22.0378C12.3699 21.7364 12.3423 21.3501 12.298 20.882L12.2896 20.7932L12.2744 20.6395C12.1855 19.7542 11.9065 18.9368 11.418 18.3292C10.8007 17.5615 9.85534 17.1249 8.42853 17.1163L8.38517 17.1161H7.68858L7.39401 16.4849C6.68609 14.968 6.34375 13.4572 6.34375 11.942C6.34375 10.0364 7.11681 8.1938 8.47748 6.82613C8.51677 6.78667 8.55645 6.74765 8.59653 6.70915L0 5.36593V4.25897Z" fill="white"/>
<path fill-rule="evenodd" clip-rule="evenodd" d="M14 5.68744C17.9091 5.68744 20.5625 8.69626 20.5625 11.9419C20.5625 13.245 20.2782 14.6009 19.6148 16.0224C15.7683 16.0224 14.8189 18.777 14.6394 20.5102L14.6279 20.6257C14.567 21.2443 14.5318 21.7407 14.5222 22.1149L13.4804 22.2776L13.4801 22.2439C13.4762 21.8517 13.4391 21.3015 13.3689 20.5933L13.3658 20.5624C13.2 18.833 12.2705 16.0224 8.38517 16.0224C7.72179 14.6009 7.4375 13.245 7.4375 11.9419C7.4375 8.69626 10.0909 5.68744 14 5.68744Z" fill="#0073FA"/>
</g>
<path fill-rule="evenodd" clip-rule="evenodd" d="M40.9499 6.78125C37.5374 6.78125 34.978 8.85938 34.9999 12.4688H38.1718C38.128 11.025 39.0468 9.625 40.9499 9.625C42.3936 9.625 43.3124 10.5875 43.3124 11.8125C43.3124 13.0813 42.3061 13.7813 40.6874 14.5688C38.5655 15.5969 37.2968 16.0781 34.9999 16.8438V21H46.8124V18.1562H39.2874C40.3838 17.6992 41.4513 17.1973 42.4155 16.7344C44.9749 15.5094 46.4843 14.1313 46.4843 11.6594C46.4843 8.68438 44.253 6.78125 40.9499 6.78125ZM51.6249 9.84375H57.7499V7H48.5624V21H51.6249V9.84375ZM62.5624 7H59.4999V21H62.5405L68.2499 12.0531V21H71.3124V7H68.2499L62.5624 15.9469V7ZM86.6905 15.75H83.5186C83.0374 17.3031 81.5718 18.375 79.8436 18.375C77.328 18.375 75.6874 16.2094 75.6874 14C75.6874 11.7906 77.2843 9.625 79.9311 9.625C81.6811 9.625 83.0374 10.6969 83.5186 12.25H86.6905C86.2311 9.12188 83.7593 6.78125 79.8436 6.78125C75.5124 6.78125 72.6249 9.82187 72.6249 14C72.6249 18.1781 75.5124 21.2188 79.8436 21.2188C83.7593 21.2188 86.2311 18.9219 86.6905 15.75Z" fill="#1A1A1A"/>
</g>
<defs>
<clipPath id="clip0_0_3681">
<rect width="86.625" height="28" fill="white"/>
</clipPath>
</defs>
</svg>
