<svg width="121" height="28" viewBox="0 0 121 28" fill="none" xmlns="http://www.w3.org/2000/svg">
<g clip-path="url(#clip0_0_3658)">
<path d="M15.166 27.6138H24.2768V11.9285L6.04006 6.6116V0H0V27.6138H9.11081V18.9198H15.166V27.6138Z" fill="#4DBC15"/>
<path d="M67.5284 14.0966C66.5896 13.1417 65.435 12.4351 64.1657 12.0388C62.8963 11.6424 61.5508 11.5683 60.2468 11.8229C58.9427 12.0775 57.7199 12.6531 56.6852 13.4993C55.6504 14.3455 54.8353 15.4366 54.311 16.6771C53.8895 17.6797 53.6757 18.7598 53.683 19.8502C53.6768 20.9221 53.881 21.9845 54.2838 22.9752C54.6866 23.9658 55.2798 24.8647 56.0287 25.6191C56.7694 26.3561 57.6408 26.9435 58.5967 27.3505C60.634 28.2007 62.9187 28.2007 64.9561 27.3505C65.912 26.9435 66.7833 26.3561 67.524 25.6191C68.2736 24.865 68.8676 23.9662 69.2711 22.9756C69.6746 21.985 69.8796 20.9224 69.874 19.8502C69.8816 18.7598 69.6678 17.6796 69.2461 16.6771C68.8385 15.7146 68.2557 14.839 67.5284 14.0966ZM65.9833 21.8383C65.7902 22.4067 65.4855 22.9293 65.0877 23.3743C64.6892 23.8036 64.2071 24.1436 63.6721 24.3727C62.4557 24.8629 61.1013 24.8629 59.885 24.3727C59.3498 24.1439 58.8676 23.8038 58.4693 23.3743C58.0703 22.9299 57.7648 22.4071 57.5716 21.8383C57.14 20.5477 57.14 19.1483 57.5716 17.8577C57.7649 17.2889 58.0704 16.7662 58.4693 16.3216C58.8677 15.8922 59.3499 15.5522 59.885 15.3232C61.101 14.8315 62.456 14.8315 63.6721 15.3232C64.2071 15.5523 64.6893 15.8923 65.0877 16.3216C65.4853 16.7668 65.7899 17.2894 65.9833 17.8577C66.4146 19.1483 66.4146 20.5476 65.9833 21.8383Z" fill="black"/>
<path d="M103.887 15.027V12.0953H91.8419V15.1564H99.5392L91.5635 24.6536V27.616H104.321V24.5549H95.8535L103.887 15.027Z" fill="black"/>
<path d="M111.829 24.5549L119.863 15.027V12.0953H107.817V15.1564H115.514L107.539 24.6536V27.616H120.296V24.5549H111.829Z" fill="black"/>
<path d="M46.5705 12.2357C44.3176 11.2878 41.5533 11.6784 39.7643 13.1442V6.6116H36.385V27.6138H39.7665V19.3564C39.7665 17.7853 40.211 15.1498 43.1825 15.1498C45.9101 15.1498 46.8791 17.4166 46.8791 19.3564V27.6116H50.2562V18.2263C50.2541 15.4044 48.9118 13.221 46.5705 12.2357Z" fill="black"/>
<path d="M84.3235 20.5699C84.3201 21.0557 84.254 21.5389 84.1271 22.0072C83.9986 22.4826 83.7834 22.9293 83.4927 23.3238C83.1904 23.7296 82.8015 24.0605 82.3554 24.2915C81.8023 24.5365 81.2054 24.6629 80.6021 24.6629C79.9988 24.6629 79.4019 24.5365 78.8488 24.2915C78.4027 24.0604 78.0139 23.7295 77.7115 23.3238C77.4203 22.9296 77.2051 22.4828 77.0771 22.0072C76.9498 21.5389 76.8831 21.0557 76.8786 20.5699V12.069H73.5251V20.9122C73.5251 24.2038 74.9537 26.3981 77.8302 27.4953C79.634 28.1582 81.6099 28.1535 83.4107 27.4821C86.941 26.126 87.6812 23.1549 87.6812 20.8991V12.1063H84.3235V20.5699Z" fill="black"/>
</g>
<defs>
<clipPath id="clip0_0_3658">
<rect width="120.296" height="28" fill="white"/>
</clipPath>
</defs>
</svg>
