<svg width="98" height="28" viewBox="0 0 98 28" fill="none" xmlns="http://www.w3.org/2000/svg">
<g clip-path="url(#clip0_0_3642)">
<path d="M93.4338 24.3811C95.3564 24.3811 96.7183 24.0377 97.733 23.2981V19.9434C96.6916 20.6566 95.4365 21.1057 93.6741 21.1057C90.7101 21.1057 89.4818 18.834 89.4818 15.2415C89.4818 11.4641 90.9771 9.53584 93.7008 9.53584C95.303 9.53584 96.8785 10.0906 97.7063 10.6189V7.13207C96.8251 6.6566 95.303 6.3132 93.2202 6.3132C87.9063 6.3132 85.1559 10.0906 85.1559 15.3736C85.1826 21.1585 87.8796 24.3811 93.4338 24.3811ZM67.4518 22.8491V19.4943C66.17 20.366 63.9804 21.1321 61.9777 21.1321C58.9335 21.1321 57.7853 19.7057 57.5984 16.8H67.6387V14.634C67.6387 8.5849 64.9417 6.3132 60.8027 6.3132C55.7292 6.3132 53.3259 10.1434 53.3259 15.4C53.3259 21.4491 56.3433 24.3811 61.6305 24.3811C64.2741 24.3811 66.2234 23.6679 67.4518 22.8491ZM29.3466 6.63018V13.4981H23.7924V6.63018H19.6267V24.0377H23.7924V16.7736H29.3466V24.0377H33.5123V6.63018H29.3466ZM52.2845 20.7623H50.442V6.63018H38.3188V8.10943C38.3188 12.3623 38.0518 17.8566 36.5831 20.7623H35.248V28H39.0932V24.0377H48.4125V28H52.2578V20.7623H52.2845ZM80.7232 24.0377H85.4496L78.7738 14.6604L84.6485 6.63018H80.4561L74.5815 14.6604V6.63018H70.4158V24.0377H74.5815V15.4792L80.7232 24.0377ZM60.6959 9.53584C62.752 9.53584 63.3929 11.2264 63.3929 13.4189V13.7623H57.5984C57.7052 10.9887 58.7199 9.53584 60.6959 9.53584ZM46.2763 20.7623H40.4016C41.5499 18.1472 41.8703 13.3924 41.8703 10.3811V9.85282H46.2763V20.7623Z" fill="black"/>
<path d="M16.1553 24.0377H11.9095V3.24906H10.0136C6.54223 3.24906 4.72643 4.96604 4.72643 7.5283C4.72643 10.434 5.98147 11.7811 8.57166 13.4981L10.7079 14.9245L4.56621 24.0377H0L5.52752 15.9019C2.34986 13.6566 0.560763 11.4642 0.560763 7.76604C0.560763 3.1434 3.81853 0 9.98692 0H16.1286V24.0377H16.1553Z" fill="#FC3F1D"/>
</g>
<defs>
<clipPath id="clip0_0_3642">
<rect width="98" height="28" fill="white"/>
</clipPath>
</defs>
</svg>
