<svg width="92" height="28" viewBox="0 0 92 28" fill="none" xmlns="http://www.w3.org/2000/svg">
<g clip-path="url(#clip0_84_2706)">
<path d="M28.5343 25.4494C28.5343 26.8483 27.3727 27.9929 25.9523 27.9929H2.71532C1.2949 27.9929 0.133301 26.8483 0.133301 25.4494V2.55204C0.133301 1.15222 1.29529 0.00762939 2.71532 0.00762939H25.9523C27.3727 0.00762939 28.5343 1.1526 28.5343 2.55204V25.4494Z" fill="#FFD900"/>
<path d="M11.9163 8.75912C11.6912 8.77576 11.605 8.8556 11.4105 9.15017C10.1082 11.1085 6.44196 16.6464 5.85597 17.568C5.36945 18.3344 5.18225 18.949 5.33853 19.5578C5.47121 20.1271 5.91933 20.5252 6.62225 20.6756C6.80023 20.6935 6.97169 20.6419 7.09015 20.4958C8.03997 19.3403 13.3628 12.3022 14.3595 10.9827C14.4958 10.8029 14.4616 10.7297 14.3865 10.577C14.2018 10.2068 13.5079 9.45571 12.9567 9.10193C12.5883 8.86544 12.2277 8.75684 11.979 8.75684C11.957 8.7559 11.9364 8.75722 11.9163 8.75912Z" fill="#12110B"/>
<path d="M24.0869 20.2073C22.9773 17.8652 17.5981 6.92718 16.4332 4.40718C15.8317 3.1065 15.2025 1.48175 14.6424 0.00701904H7.95008C8.048 2.23434 8.07852 3.35945 7.71526 4.41191C7.07475 6.26086 4.99884 8.2008 3.56211 9.70088C3.06694 10.2157 5.08044 11.6075 7.21164 9.96329C7.98444 9.36526 9.20595 8.18718 10.1978 7.42172C10.6459 7.07286 11.226 6.90921 11.8171 6.99529C12.6362 7.11259 13.1988 7.48548 13.7721 8.16315C14.3539 8.84953 14.9035 9.77997 15.6533 10.9874C17.0674 13.2662 18.6562 15.8446 20.3596 18.5092C21.2257 19.8651 22.3802 20.4338 23.9617 20.3956C24.1142 20.3922 24.1357 20.3066 24.0869 20.2073Z" fill="#12110B"/>
<path d="M50.1925 3.29378C50.5197 2.79792 50.9304 2.54913 51.4236 2.54913C51.915 2.54913 52.2917 2.69008 52.5536 2.96932C52.8174 3.2497 52.9479 3.57359 52.9479 3.93948C52.9479 4.30594 52.8606 4.62832 52.6864 4.9087L44.8148 15.7352V23.9752C44.8148 24.385 44.6714 24.7306 44.3888 25.0101C44.1046 25.2904 43.754 25.4295 43.3379 25.4295C42.9234 25.4295 42.5674 25.2904 42.2727 25.0101C41.9772 24.7306 41.8304 24.385 41.8304 23.9752V15.7352L33.992 4.9087C33.8159 4.62832 33.7295 4.30594 33.7295 3.93948C33.7295 3.57359 33.8614 3.2497 34.1229 2.96932C34.3859 2.68951 34.7625 2.54913 35.2547 2.54913C35.7461 2.54913 36.1568 2.79773 36.4839 3.29378L43.3377 13.1167L50.1925 3.29378Z" fill="#12110B"/>
<path d="M54.6152 21.5528C55.5546 22.4142 56.8664 22.8444 58.551 22.8444C60.234 22.8444 61.6452 22.5656 62.7823 22.0048C63.1757 21.8099 63.5134 21.7136 63.7985 21.7136C64.0825 21.7136 64.3561 21.8319 64.618 22.0687C64.8799 22.3056 65.0114 22.5756 65.0114 22.8762C65.0114 23.4373 64.7758 23.8416 64.3079 24.0889C63.8358 24.3367 63.4155 24.5462 63.0441 24.7187C62.6699 24.8913 62.2679 25.042 61.8313 25.1716C60.8467 25.4505 59.7097 25.5915 58.4198 25.5915C55.7297 25.5915 53.6421 24.8483 52.1566 23.3619C50.6688 21.8763 49.9265 19.764 49.9265 17.0272C49.9265 14.6582 50.5497 12.6872 51.7945 11.1147C53.1949 9.34785 55.1842 8.46472 57.7636 8.46472C60.2125 8.46472 62.1479 9.2841 63.5697 10.9198C64.9025 12.4507 65.5699 14.3455 65.5699 16.6087C65.5699 17.0172 65.4317 17.3632 65.1592 17.6413C64.8849 17.923 64.5183 18.063 64.0604 18.063H52.9421C53.1181 19.526 53.6757 20.6896 54.6152 21.5528ZM57.7645 10.9512C55.8184 10.9512 54.3972 11.8028 53.5006 13.5042C53.1725 14.1075 52.9872 14.8289 52.9426 15.6694H62.6173C62.53 14.1404 61.9618 12.9345 60.9122 12.0499C60.0378 11.3183 58.9891 10.9512 57.7645 10.9512Z" fill="#12110B"/>
<path d="M68.8038 1.93598C69.0878 1.65617 69.4453 1.51617 69.8704 1.51617C70.297 1.51617 70.6515 1.65655 70.9366 1.93598C71.2202 2.21598 71.3645 2.57185 71.3645 3.00301V23.9752C71.3645 24.385 71.2202 24.7306 70.9366 25.0101C70.6516 25.2904 70.297 25.4295 69.8704 25.4295C69.4453 25.4295 69.0878 25.2904 68.8038 25.0101C68.5212 24.7306 68.3782 24.385 68.3782 23.9752V3.00263C68.3782 2.57185 68.5212 2.21598 68.8038 1.93598Z" fill="#12110B"/>
<path d="M75.2073 1.93598C75.4922 1.65617 75.8474 1.51617 76.2744 1.51617C76.7005 1.51617 77.0555 1.65655 77.3396 1.93598C77.6236 2.21598 77.7666 2.57185 77.7666 3.00301V23.9752C77.7666 24.385 77.6236 24.7306 77.3396 25.0101C77.0555 25.2904 76.7005 25.4295 76.2744 25.4295C75.8474 25.4295 75.4924 25.2904 75.2073 25.0101C74.9243 24.7306 74.7803 24.385 74.7803 23.9752V3.00263C74.7793 2.57185 74.9241 2.21598 75.2073 1.93598Z" fill="#12110B"/>
<path d="M2.69873 22.8369L2.69911 22.9106C2.70948 24.2675 3.85227 25.4401 5.22833 25.4401H23.3764C24.7879 25.4401 25.9426 24.262 25.9524 22.9061L25.9528 22.837L2.69873 22.8369Z" fill="#12110B"/>
<path d="M83.2726 23.0081C83.3033 23.0384 83.3186 23.0752 83.3186 23.1182C83.3186 23.1611 83.3033 23.1971 83.2726 23.2264C83.2424 23.2548 83.205 23.269 83.1618 23.269H82.4224V25.3245C82.4224 25.3699 82.4061 25.4087 82.3734 25.4394C82.3404 25.47 82.301 25.4861 82.255 25.4861C82.2085 25.4861 82.1701 25.4709 82.1384 25.4394C82.1077 25.4085 82.0904 25.3699 82.0904 25.3245V23.269H81.3478C81.3046 23.269 81.2681 23.2548 81.2389 23.2264C81.2095 23.1971 81.1953 23.1611 81.1953 23.1182C81.1953 23.0752 81.2097 23.0387 81.2389 23.0081C81.2681 22.9788 81.3046 22.9636 81.3478 22.9636H83.1614C83.205 22.9646 83.2424 22.9791 83.2726 23.0081Z" fill="#12110B"/>
<path d="M86.4642 23.0161C86.5102 23.0624 86.5333 23.1182 86.5333 23.1829V25.3245C86.5333 25.3699 86.5173 25.4087 86.4862 25.4394C86.4546 25.47 86.4152 25.4861 86.3697 25.4861C86.3232 25.4861 86.2839 25.471 86.2512 25.4394C86.2186 25.4076 86.2023 25.3699 86.2023 25.3245V23.287L85.3607 25.3355C85.3415 25.3809 85.3108 25.4172 85.2695 25.4456C85.2282 25.4721 85.1803 25.4863 85.1275 25.4863C85.0747 25.4863 85.0266 25.4721 84.9854 25.4456C84.9441 25.4172 84.9134 25.3809 84.8942 25.3355L84.0526 23.287V25.3245C84.0526 25.3699 84.0369 25.4087 84.0037 25.4394C83.971 25.47 83.9317 25.4861 83.8856 25.4861C83.8391 25.4861 83.8002 25.471 83.7694 25.4394C83.7378 25.4085 83.7214 25.3699 83.7214 25.3245V23.1829C83.7214 23.1182 83.7445 23.0624 83.7909 23.0161C83.837 22.9693 83.8927 22.9457 83.9584 22.9457H84.0787C84.1273 22.9457 84.1713 22.9599 84.2116 22.9892C84.2519 23.018 84.2817 23.0535 84.3009 23.0965L85.1276 25.127L85.9544 23.0965C85.9736 23.0535 86.0037 23.018 86.0441 22.9892C86.084 22.9599 86.128 22.9457 86.1769 22.9457H86.2969C86.3624 22.9466 86.4177 22.9693 86.4642 23.0161Z" fill="#12110B"/>
</g>
<defs>
<clipPath id="clip0_84_2706">
<rect width="91.3333" height="28" fill="white"/>
</clipPath>
</defs>
</svg>
