<svg width="153" height="45" viewBox="0 0 153 45" fill="none" xmlns="http://www.w3.org/2000/svg">
<g clip-path="url(#clip0_0_3620)">
<mask id="mask0_0_3620" style="mask-type:luminance" maskUnits="userSpaceOnUse" x="0" y="0" width="153" height="45">
<path d="M152.68 0H0V44.7444H152.68V0Z" fill="white"/>
</mask>
<g mask="url(#mask0_0_3620)">
<path d="M130.417 34.0935H135.732V24.3692H147.365V34.0935H152.68V10.6509H147.365V19.9331H135.732V10.6509H130.417V34.0935Z" fill="#1D1D1D"/>
<path d="M127.833 23.4453C127.833 14.9406 123.403 9.6897 116.424 9.6897C109.444 9.6897 104.201 15.5317 104.201 22.2977C104.201 29.3965 109.186 34.9429 117.014 34.9429C120.595 34.9429 123.919 33.7607 126.687 31.3935L124.36 27.9559C122.366 29.3991 119.894 30.5068 117.197 30.5068C113.209 30.5068 110.367 28.2142 109.553 24.4785H127.83V23.4427L127.833 23.4453ZM109.519 20.3006C110.221 16.6394 113.026 14.1631 116.424 14.1631C119.822 14.1631 122.037 16.493 122.627 20.3006H109.519Z" fill="#1D1D1D"/>
<path d="M91.978 34.9455C98.5135 34.9455 102.576 31.8408 102.576 27.6976C102.576 25.1467 101.135 22.9287 97.5908 22.2257L97.3701 22.1884V21.9674L97.5908 21.9301C100.952 21.2645 102.353 19.1929 102.353 16.7538C102.353 12.9834 98.8458 9.76416 92.7517 9.76416C88.6172 9.76416 84.5916 11.3165 81.2681 13.7955L83.3739 17.4195C85.7004 15.7926 88.9868 14.2029 92.3821 14.2029C95.4824 14.2029 97.1814 15.5343 97.1814 17.3077C97.1814 18.9346 95.6685 20.1541 92.4193 20.2659L86.8065 20.5242V24.0736L92.4193 24.3319C95.8519 24.5156 97.1814 25.7378 97.1814 27.2529C97.1814 29.029 95.3361 30.5813 91.6057 30.5813C87.8753 30.5813 84.8123 29.0663 82.1907 27.2529V32.2083C83.778 33.1322 87.2479 34.9455 91.9753 34.9455H91.978Z" fill="#1D1D1D"/>
<path d="M77.543 28.8053V10.6509H58.9708L57.6042 22.7423C57.0139 27.6976 55.5356 28.8053 52.8767 28.8053H52.656V39.4189H57.9737V34.0935H75.3281V39.4189H80.6459V28.8053H77.5456H77.543ZM72.2625 29.6574H59.3032V29.4364C60.8905 28.8453 62.2572 27.8467 62.664 23.9645L63.5866 15.0524H72.2625V29.6574Z" fill="#1D1D1D"/>
<path fill-rule="evenodd" clip-rule="evenodd" d="M22.4275 44.7444H22.2494C13.3794 44.7444 8.19196 43.8497 4.57856 40.303C0.858813 36.5033 0 31.3456 0 22.4973V22.247C0 13.3988 0.858813 8.20385 4.57856 4.44142C8.22652 0.894675 13.3794 0 22.252 0H22.4302C31.2656 0 36.453 0.894675 40.0983 4.44142C43.8181 8.24112 44.6769 13.3988 44.6769 22.247V22.4973C44.6769 31.3482 43.8181 36.5405 40.0983 40.303C36.4504 43.8497 31.3001 44.7444 22.4275 44.7444ZM39.0534 21.7145C39.2236 21.7225 39.3618 21.8636 39.3618 22.034H39.3592V22.7476C39.3592 22.9207 39.2209 23.0618 39.0507 23.0672C32.9433 23.2988 29.2289 24.0763 26.6259 26.6831C24.0255 29.2873 23.2491 33.0018 23.0151 39.1074C23.0071 39.2778 22.8662 39.4163 22.6961 39.4163H21.9808C21.808 39.4163 21.6671 39.2778 21.6618 39.1074C21.4278 33.0018 20.6514 29.2873 18.051 26.6831C15.4507 24.079 11.7336 23.2988 5.62616 23.0672C5.45599 23.0592 5.31773 22.918 5.31773 22.7476V22.034C5.31773 21.8609 5.45599 21.7198 5.62616 21.7145C11.7336 21.4828 15.448 20.7053 18.051 18.0985C20.6567 15.4891 21.4331 11.7612 21.6644 5.63432C21.6724 5.46391 21.8133 5.32544 21.9835 5.32544H22.6961C22.8689 5.32544 23.0098 5.46391 23.0151 5.63432C23.2464 11.7639 24.0228 15.4891 26.6285 18.0985C29.2289 20.7027 32.946 21.4828 39.0534 21.7145Z" fill="#1D1D1D"/>
</g>
</g>
<defs>
<clipPath id="clip0_0_3620">
<rect width="152.885" height="45" fill="white"/>
</clipPath>
</defs>
</svg>
