<svg width="109" height="28" viewBox="0 0 109 28" fill="none" xmlns="http://www.w3.org/2000/svg">
<g clip-path="url(#clip0_0_3672)">
<path d="M0.952778 1.74404H23.5472C24.0734 1.74404 24.5 2.17061 24.5 2.69682V7.14C24.5 7.73184 24.2432 8.29221 23.7961 8.68L11.1611 19.25H23.5472C24.0734 19.25 24.5 19.6688 24.5 20.195V25.2959C24.5 25.8221 24.0734 26.2487 23.5472 26.2487H0.952778C0.426573 26.2487 0 25.8221 0 25.2959V20.86C0 20.2682 0.256821 19.7078 0.703918 19.32L13.3389 8.75H0.952778C0.426573 8.75 0 8.3137 0 7.7875V2.69682C0 2.17061 0.426573 1.74404 0.952778 1.74404ZM40.25 0.875C42.8625 0.875 45.1917 1.46249 47.1361 2.5361C49.0806 3.6097 50.6403 5.16942 51.7139 7.11386C52.7875 9.05831 53.375 11.3875 53.375 14C53.375 16.6125 52.7875 18.9417 51.7139 20.8861C50.6403 22.8306 49.0806 24.3903 47.1361 25.4639C45.1917 26.5375 42.8625 27.125 40.25 27.125C37.6375 27.125 35.3083 26.5375 33.3639 25.4639C31.4194 24.3903 29.8597 22.8306 28.7861 20.8861C27.7125 18.9417 27.125 16.6125 27.125 14C27.125 11.3875 27.7125 9.05831 28.7861 7.11386C29.8597 5.16942 31.4194 3.6097 33.3639 2.5361C35.3083 1.46249 37.6375 0.875 40.25 0.875ZM40.25 7.875C39.0003 7.875 37.9032 8.13899 36.9958 8.62982C36.0884 9.12066 35.3707 9.83835 34.8798 10.7458C34.389 11.6532 34.125 12.7503 34.125 14C34.125 15.2497 34.389 16.3468 34.8798 17.2542C35.3707 18.1616 36.0884 18.8793 36.9958 19.3702C37.9032 19.861 39.0003 20.125 40.25 20.125C41.4997 20.125 42.5968 19.861 43.5042 19.3702C44.4116 18.8793 45.1293 18.1616 45.6202 17.2542C46.111 16.3468 46.375 15.2497 46.375 14C46.375 12.7503 46.111 11.6532 45.6202 10.7458C45.1293 9.83835 44.4116 9.12066 43.5042 8.62982C42.5968 8.13899 41.4997 7.875 40.25 7.875ZM68.25 0.875C70.8625 0.875 73.1917 1.46249 75.1361 2.5361C77.0806 3.6097 78.6403 5.16942 79.7139 7.11386C80.7875 9.05831 81.375 11.3875 81.375 14C81.375 16.6125 80.7875 18.9417 79.7139 20.8861C78.6403 22.8306 77.0806 24.3903 75.1361 25.4639C73.1917 26.5375 70.8625 27.125 68.25 27.125C65.6375 27.125 63.3083 26.5375 61.3639 25.4639C59.4194 24.3903 57.8597 22.8306 56.7861 20.8861C55.7125 18.9417 55.125 16.6125 55.125 14C55.125 11.3875 55.7125 9.05831 56.7861 7.11386C57.8597 5.16942 59.4194 3.6097 61.3639 2.5361C63.3083 1.46249 65.6375 0.875 68.25 0.875ZM68.25 7.875C67.0003 7.875 65.9032 8.13899 64.9958 8.62982C64.0884 9.12066 63.3707 9.83835 62.8798 10.7458C62.389 11.6532 62.125 12.7503 62.125 14C62.125 15.2497 62.389 16.3468 62.8798 17.2542C63.3707 18.1616 64.0884 18.8793 64.9958 19.3702C65.9032 19.861 67.0003 20.125 68.25 20.125C69.4997 20.125 70.5968 19.861 71.5042 19.3702C72.4116 18.8793 73.1293 18.1616 73.6202 17.2542C74.111 16.3468 74.375 15.2497 74.375 14C74.375 12.7503 74.111 11.6532 73.6202 10.7458C73.1293 9.83835 72.4116 9.12066 71.5042 8.62982C70.5968 8.13899 69.4997 7.875 68.25 7.875ZM108.503 2.69985V25.2955C108.503 25.8217 108.076 26.2483 107.55 26.2483H103.11C102.518 26.2483 101.958 25.9916 101.57 25.5445L91 12.9111V25.2955C91 25.8217 90.5637 26.2483 90.0375 26.2483H84.9498C84.4236 26.2483 83.997 25.8217 83.997 25.2955V2.69985C83.997 2.17362 84.4236 1.74702 84.9498 1.74702H89.39C89.9819 1.74702 90.5422 2.00391 90.93 2.45111L101.5 15.0889V2.69985C101.5 2.17362 101.919 1.74702 102.445 1.74702H107.55C108.076 1.74702 108.503 2.17362 108.503 2.69985Z" fill="url(#paint0_linear_0_3672)"/>
</g>
<defs>
<linearGradient id="paint0_linear_0_3672" x1="8391.96" y1="1313.38" x2="2366.59" y2="1313.38" gradientUnits="userSpaceOnUse">
<stop stop-color="#6339F5"/>
<stop offset="1" stop-color="#3D3F55"/>
</linearGradient>
<clipPath id="clip0_0_3672">
<rect width="108.5" height="28" fill="white"/>
</clipPath>
</defs>
</svg>
