<?xml version="1.0" encoding="utf-8"?><svg viewBox="0 0 24 24" xmlns="http://www.w3.org/2000/svg" xmlns:xlink="http://www.w3.org/1999/xlink"><style>:root>svg{display:none}:root>svg:target{display:block}</style><svg fill="none" viewBox="0 0 20 20" id="arrow" xmlns="http://www.w3.org/2000/svg"><path d="m7.5 15 5-5-5-5" stroke="#1D1D1D" stroke-linecap="round" stroke-linejoin="round"/></svg><svg fill="none" viewBox="0 0 14 15" id="arrows-double" xmlns="http://www.w3.org/2000/svg"><path d="m7.586 10.357 2.917-2.917-2.917-2.917" stroke="currentColor" stroke-linecap="round" stroke-linejoin="round"/><path d="M3.5 10.357 6.417 7.44 3.5 4.523" stroke="currentColor" stroke-opacity=".5" stroke-linecap="round" stroke-linejoin="round"/></svg><svg fill="none" viewBox="0 0 15 14" id="burger" xmlns="http://www.w3.org/2000/svg"><path d="M2.25 2.625h10.5M2.25 5.542h10.5M2.25 8.458h10.5M2.25 11.375h10.5" stroke="currentColor" stroke-linecap="round" stroke-linejoin="round"/></svg><svg fill="none" viewBox="0 0 16 17" id="close" xmlns="http://www.w3.org/2000/svg"><path d="m12 4.5-8 8M4 4.5l8 8" stroke="currentColor" stroke-linecap="round" stroke-linejoin="round"/></svg><svg fill="none" viewBox="0 0 18 18" id="percent" xmlns="http://www.w3.org/2000/svg"><path d="M9 16.5a7.5 7.5 0 1 0 0-15 7.5 7.5 0 0 0 0 15ZM6.75 11.25l4.5-4.5" stroke="currentColor" stroke-linecap="round" stroke-linejoin="round"/><path d="M10.87 10.875h.008M7.12 7.125h.008" stroke="currentColor" stroke-width="2" stroke-linecap="round" stroke-linejoin="round"/></svg><svg fill="none" viewBox="0 0 15 14" id="pin" xmlns="http://www.w3.org/2000/svg"><path d="M7.5 7.834a1.82 1.82 0 1 0 0-3.64 1.82 1.82 0 0 0 0 3.64Z" stroke="currentColor"/><path d="M2.61 4.953c1.15-5.052 8.634-5.046 9.777.005.67 2.964-1.173 5.472-2.788 7.024a3.03 3.03 0 0 1-4.206 0C3.783 10.43 1.94 7.916 2.61 4.952Z" stroke="currentColor"/></svg><svg fill="none" viewBox="0 0 14 15" id="plus" xmlns="http://www.w3.org/2000/svg"><path d="M7 3.357v8.166M2.914 7.44h8.167" stroke="currentColor" stroke-linecap="round" stroke-linejoin="round"/></svg><svg fill="none" viewBox="0 0 20 20" id="question" xmlns="http://www.w3.org/2000/svg"><rect x=".5" y=".5" width="19" height="19" rx="9.5" stroke="#DDD"/><path d="M9.195 12.46v-.079c.005-.518.055-.93.15-1.236.097-.306.235-.554.414-.743.178-.19.393-.362.644-.518a2.66 2.66 0 0 0 .438-.355c.13-.131.233-.282.309-.451a1.37 1.37 0 0 0 .113-.564c0-.248-.057-.462-.17-.643a1.148 1.148 0 0 0-.454-.418c-.187-.1-.395-.15-.625-.15-.208 0-.407.044-.596.133a1.14 1.14 0 0 0-.47.418c-.125.186-.196.427-.215.722H7.5c.019-.5.142-.924.369-1.27.227-.347.527-.61.9-.789.376-.178.791-.267 1.245-.267.498 0 .933.096 1.306.288.373.19.662.455.868.798.208.34.312.736.312 1.19 0 .312-.047.593-.142.844-.095.248-.23.47-.405.664a2.786 2.786 0 0 1-.625.518c-.23.148-.416.3-.56.46-.14.158-.243.346-.308.563-.065.217-.1.486-.105.806v.08h-1.16ZM9.807 15a.776.776 0 0 1-.571-.242.82.82 0 0 1-.24-.593c0-.229.08-.424.24-.585a.77.77 0 0 1 .571-.246c.22 0 .409.082.568.246a.795.795 0 0 1 .243.585.85.85 0 0 1-.405.723.756.756 0 0 1-.406.112Z" fill="currentColor"/></svg><svg fill="none" viewBox="0 0 24 24" id="search" xmlns="http://www.w3.org/2000/svg"><path d="M11.5 21a9.5 9.5 0 1 0 0-19 9.5 9.5 0 0 0 0 19ZM22 22l-2-2" stroke="currentColor" stroke-linecap="round" stroke-linejoin="round"/></svg><svg fill="none" viewBox="0 0 16 16" id="star" xmlns="http://www.w3.org/2000/svg"><path d="m9.153 2.34 1.174 2.347c.16.326.586.64.946.7l2.127.353c1.36.227 1.68 1.213.7 2.187L12.447 9.58c-.28.28-.434.82-.347 1.207l.473 2.046c.374 1.62-.486 2.247-1.92 1.4l-1.993-1.18c-.36-.213-.953-.213-1.32 0l-1.993 1.18c-1.427.847-2.294.214-1.92-1.4l.473-2.046c.087-.387-.067-.927-.347-1.207L1.9 7.927c-.973-.974-.66-1.96.7-2.187l2.127-.353c.353-.06.78-.374.94-.7L6.84 2.34c.64-1.273 1.68-1.273 2.313 0Z" fill="#FA523D"/></svg><svg fill="none" viewBox="0 0 21 21" id="telegram" xmlns="http://www.w3.org/2000/svg"><path d="M13.93 8.242c.46-.46.917-1.533-1-.23a330.067 330.067 0 0 1-5.407 3.644 2.25 2.25 0 0 1-1.764.038c-1.15-.345-2.493-.805-2.493-.805s-.917-.576.653-1.19c0 0 6.634-2.722 8.935-3.68.881-.384 3.872-1.61 3.872-1.61s1.381-.538 1.266.766c-.038.536-.345 2.416-.652 4.448-.46 2.876-.959 6.02-.959 6.02s-.076.883-.728 1.036a3.156 3.156 0 0 1-1.917-.69c-.153-.115-2.876-1.84-3.873-2.684a.727.727 0 0 1 .038-1.228 140.952 140.952 0 0 0 4.03-3.835Z" fill="currentColor"/></svg><svg fill="none" viewBox="0 0 14 14" id="vk" xmlns="http://www.w3.org/2000/svg"><g clip-path="url(#la)"><path d="M6.85 10.523h.836s.253-.028.382-.167c.119-.128.114-.368.114-.368s-.016-1.122.505-1.288c.514-.163 1.174 1.085 1.873 1.566.528.363.93.283.93.283l1.87-.026s.978-.06.514-.83c-.037-.063-.27-.568-1.39-1.608-1.173-1.088-1.015-.912.397-2.794.86-1.146 1.204-1.846 1.096-2.145-.102-.286-.735-.21-.735-.21l-2.103.012s-.156-.021-.272.048a.592.592 0 0 0-.186.226s-.333.887-.778 1.641C8.966 6.455 8.591 6.54 8.438 6.44c-.356-.23-.267-.926-.267-1.42 0-1.542.234-2.185-.456-2.351-.23-.055-.397-.092-.983-.098-.75-.008-1.386.002-1.746.178-.24.118-.424.38-.312.394.14.018.455.085.622.312.216.294.208.953.208.953s.124 1.816-.29 2.042c-.284.155-.673-.161-1.51-1.606-.427-.74-.75-1.557-.75-1.557s-.063-.153-.174-.234c-.135-.099-.324-.13-.324-.13l-2 .012s-.3.009-.41.139c-.098.116-.008.356-.008.356s1.566 3.664 3.339 5.51c1.626 1.694 3.473 1.583 3.473 1.583Z" fill="currentColor"/></g><defs><clipPath id="la"><path d="M0 0h14v14H0z"/></clipPath></defs></svg><svg fill="none" viewBox="0 0 17 17" id="whatsapp" xmlns="http://www.w3.org/2000/svg"><g clip-path="url(#ma)"><path d="M8.502.5h-.004C4.087.5.5 4.088.5 8.5a7.94 7.94 0 0 0 1.523 4.689l-.997 2.972 3.075-.983A7.93 7.93 0 0 0 8.502 16.5c4.411 0 7.998-3.589 7.998-8s-3.587-8-7.998-8Zm4.655 11.297c-.193.545-.959.997-1.57 1.129-.418.089-.964.16-2.802-.602-2.351-.974-3.865-3.363-3.983-3.518-.113-.155-.95-1.265-.95-2.413s.583-1.707.818-1.947c.193-.197.512-.287.818-.287.099 0 .188.005.268.009.235.01.353.024.508.395.193.465.663 1.613.719 1.731.057.118.114.278.034.433-.075.16-.141.231-.259.367-.118.136-.23.24-.348.386-.108.127-.23.263-.094.498.136.23.606.997 1.298 1.613.893.795 1.617 1.049 1.876 1.157.193.08.423.061.564-.089.179-.193.4-.513.625-.828.16-.226.362-.254.574-.174.216.075 1.359.64 1.594.757.235.118.39.174.447.273.056.099.056.564-.137 1.11Z" fill="currentColor"/></g><defs><clipPath id="ma"><path fill="#fff" transform="translate(.5 .5)" d="M0 0h16v16H0z"/></clipPath></defs></svg><svg fill="none" viewBox="0 0 14 14" id="youtube" xmlns="http://www.w3.org/2000/svg"><path d="M13.417 5.664a4.959 4.959 0 0 0-.531-2.409 1.703 1.703 0 0 0-1.004-.583A45.71 45.71 0 0 0 7 2.49a45.766 45.766 0 0 0-4.865.175c-.32.058-.616.208-.852.431C.758 3.582.7 4.41.642 5.11a28.169 28.169 0 0 0 0 3.78c.016.394.075.785.175 1.167.07.294.212.567.414.793.237.235.54.394.869.455 1.258.155 2.525.22 3.792.193 2.041.029 3.832 0 5.95-.164a1.68 1.68 0 0 0 .892-.455c.163-.163.285-.363.356-.583a6.17 6.17 0 0 0 .303-1.984c.024-.326.024-2.298.024-2.648ZM5.682 8.662v-3.61l3.453 1.814c-.968.536-2.246 1.143-3.453 1.796Z" fill="currentColor"/></svg></svg>